<?xml version="1.0" standalone="no"?><!DOCTYPE svg PUBLIC "-//W3C//DTD SVG 1.1//EN" "http://www.w3.org/Graphics/SVG/1.1/DTD/svg11.dtd"><svg t="1783153204930" class="icon" viewBox="0 0 1024 1024" version="1.1" xmlns="http://www.w3.org/2000/svg" p-id="9167" xmlns:xlink="http://www.w3.org/1999/xlink" width="200" height="200"><path d="M853.333333 512c0-188.522667-152.810667-341.333333-341.333333-341.333333S170.666667 323.477333 170.666667 512s152.810667 341.333333 341.333333 341.333333 341.333333-152.810667 341.333333-341.333333z m-384 85.333333v-42.666666a42.666667 42.666667 0 0 1 42.666667-42.666667 85.354667 85.354667 0 0 0 32.64-164.181333 85.312 85.312 0 0 0-88.085333 13.973333 85.312 85.312 0 0 0-25.728 38.528 42.666667 42.666667 0 0 1-81.152-26.346667 170.624 170.624 0 0 1 227.605333-105.002666 170.709333 170.709333 0 0 1 104.853333 144.277333 170.709333 170.709333 0 0 1-80.938666 158.933333 170.666667 170.666667 0 0 1-46.528 19.669334V597.333333a42.666667 42.666667 0 1 1-85.333334 0z m87.466667 132.266667a42.666667 42.666667 0 0 1-42.602667 42.666667h-4.245333a42.666667 42.666667 0 0 1-42.752-42.666667V725.333333a42.666667 42.666667 0 0 1 42.666667-42.666666h4.266666a42.666667 42.666667 0 0 1 42.666667 42.666666v4.266667zM938.666667 512c0 235.648-191.018667 426.666667-426.666667 426.666667S85.333333 747.648 85.333333 512 276.352 85.333333 512 85.333333s426.666667 191.018667 426.666667 426.666667z" fill="#222222" p-id="9168"></path></svg>