<?xml version="1.0" standalone="no"?><!DOCTYPE svg PUBLIC "-//W3C//DTD SVG 1.1//EN" "http://www.w3.org/Graphics/SVG/1.1/DTD/svg11.dtd"><svg t="1783153314827" class="icon" viewBox="0 0 1024 1024" version="1.1" xmlns="http://www.w3.org/2000/svg" p-id="11077" xmlns:xlink="http://www.w3.org/1999/xlink" width="200" height="200"><path d="M745.408 144.064H277.248l-8.96 1.28a18.112 18.112 0 0 0-10.816 6.08l-9.088 9.92-149.12 273.408a32 32 0 0 0-2.56 6.08l-0.704 3.2c-1.28 5.568-1.664 7.552 0.64 13.44l2.816 6.08 4.48 8.96 381.696 435.712 4.736 4.416 1.472 1.152c1.792 1.28 3.008 2.112 5.568 2.816l4.8 1.152 8 1.6 1.088-0.128 1.088 0.128c10.688-1.6 13.312-1.984 18.56-6.08l6.4-5.568 381.568-435.392 3.84-5.568a20.992 20.992 0 0 0 1.984-3.968l1.408-5.056 0.832-3.712-0.128-7.488a34.304 34.304 0 0 0-3.712-12.16l-149.056-273.216-8.96-9.792a18.112 18.112 0 0 0-10.752-5.952l-8.96-1.28V144z m-18.624 64l129.92 238.208-345.408 394.176-345.408-394.24L295.744 208h431.04z" fill="#0A0A0A" p-id="11078"></path><path d="M752.192 137.664v0.896l3.456 0.512h0.128a24.576 24.576 0 0 1 14.4 7.936l8.96 9.792 0.64 0.64 149.376 273.92 0.32 0.512-0.128 0.064c2.624 6.144 3.968 9.216 4.288 14.08v0.384l0.128 7.552v0.704l-0.128 0.768-0.896 3.776v0.256l-1.408 5.056-0.192 0.576a27.648 27.648 0 0 1-2.624 5.12l-0.128 0.192-3.84 5.568-0.32 0.64-381.632 435.328-0.256 0.384-0.384 0.32-6.528 5.504-0.192 0.192a27.008 27.008 0 0 1-9.28 5.056c-3.2 0.96-7.04 1.536-12.16 2.304l-1.024 0.192-0.96-0.192-0.128-0.064-1.28 0.256-1.088-0.256-8-1.536-0.256-0.128-4.8-1.152-0.256-0.064a21.504 21.504 0 0 1-7.552-3.84H488.32l-1.536-1.28-0.448-0.32-4.736-4.48-0.448-0.384-381.696-435.712-0.512-0.64-0.384-0.704-4.48-8.96-0.064-0.256-2.752-6.144-0.128-0.192a25.024 25.024 0 0 1-2.112-9.088c-0.064-2.816 0.512-5.504 1.024-8.064l0.064-0.128 0.768-3.2 0.128-0.448a38.464 38.464 0 0 1 3.072-7.232l149.056-273.408 0.384-0.64 0.576-0.64 9.024-9.92a24.576 24.576 0 0 1 14.528-8.064h0.128l8.96-1.28h475.456z m-482.56 13.952a11.776 11.776 0 0 0-6.912 3.968l-0.128 0.192-0.064-0.064-8.64 9.472-148.544 272.64a25.856 25.856 0 0 0-2.112 4.864l-0.64 2.624v0.064c-0.64 2.944-0.832 4.096-0.832 5.12 0 0.832 0.192 1.984 1.28 4.544l2.624 5.824 3.968 8.064 380.992 434.88 4.16 3.84 1.152 0.96a9.344 9.344 0 0 0 3.648 1.856l4.224 1.024 6.848 1.28h0.96l1.024 0.128c4.928-0.768 7.552-1.152 9.6-1.792a14.336 14.336 0 0 0 5.12-2.88l5.76-4.928 380.8-434.56 3.84-5.568a14.848 14.848 0 0 0 1.344-2.56l1.28-4.608 0.576-2.816-0.064-6.272-0.704-3.52a81.344 81.344 0 0 0-2.304-5.952L769.28 164.928l-8.512-9.216-0.064-0.128a11.84 11.84 0 0 0-6.912-3.84l-8.96-1.28H278.144l-8.448 1.152z m457.472 49.984l1.28 5.632 4.352-2.304 129.92 238.272 2.176 3.904-2.944 3.392-350.208 399.616L161.472 450.56l-2.944-3.392 2.112-3.904 129.92-238.272 1.728-3.328h434.816zM174.08 445.44l337.6 385.28 337.664-385.344-125.952-230.848H299.968L174.016 445.376z" fill="#0A0A0A" p-id="11079"></path><path d="M341.312 482.176a32 32 0 0 1 45.056 2.816l149.312 169.344a32 32 0 1 1-47.872 42.24L338.496 527.296a32 32 0 0 1 2.816-45.12z" fill="#0A0A0A" p-id="11080"></path><path d="M364.672 467.904a38.4 38.4 0 0 1 26.432 12.864l149.056 169.088 4.928 6.08a38.144 38.144 0 0 1 6.208 22.272 38.464 38.464 0 0 1-56.832 32.384 38.4 38.4 0 0 1-11.52-9.792L333.504 531.584a38.4 38.4 0 0 1 31.104-63.616z m-0.704 12.8a25.664 25.664 0 0 0-27.136 23.872 25.6 25.6 0 0 0 6.4 18.56l149.248 169.216 0.256 0.32a25.536 25.536 0 0 0 45.76-14.912 25.728 25.728 0 0 0-7.424-18.88l-0.32-0.32-149.248-169.344a25.6 25.6 0 0 0-17.536-8.576z" fill="#0A0A0A" p-id="11081"></path><path d="M490.304 699.52a32 32 0 0 1-2.816-45.12L636.8 485.12a32 32 0 1 1 48 42.24l-149.376 169.408a32 32 0 0 1-45.12 2.816z" fill="#0A0A0A" p-id="11082"></path><path d="M658.816 466.944a38.464 38.464 0 0 1 30.912 64.896l-149.12 169.152a38.4 38.4 0 0 1-48 7.808l-6.144-4.48a38.4 38.4 0 0 1-3.392-54.144l149.312-169.344a38.4 38.4 0 0 1 26.432-13.888z m1.152 12.736a25.728 25.728 0 0 0-17.792 9.408l-0.192 0.256-149.312 169.344a25.6 25.6 0 1 0 38.4 33.792l149.248-169.28 0.192-0.256a25.536 25.536 0 0 0-20.544-43.264z" fill="#0A0A0A" p-id="11083"></path></svg>