<svg width="40" height="35" viewBox="0 0 40 35" fill="none" xmlns="http://www.w3.org/2000/svg">
<path d="M6.08976 10.7222C4.76096 13.0083 4 15.6653 4 18.5C4 27.0604 10.9396 34 19.5 34C28.0604 34 35 27.0604 35 18.5C35 9.93959 28.0604 3 19.5 3C18.1457 3 16.832 3.17369 15.5799 3.5" stroke="#A9630A" stroke-width="2" stroke-linecap="round"/>
<path d="M36.0828 12.0129C36.0862 12.0124 36.1644 12.0005 36.3354 12.1382C36.5081 12.2773 36.7153 12.5254 36.9278 12.9003C37.3505 13.6462 37.7174 14.758 37.8938 16.0558C38.0702 17.3535 38.0134 18.5229 37.8051 19.3546C37.7004 19.7726 37.5669 20.067 37.4376 20.2472C37.3096 20.4255 37.2311 20.4349 37.2276 20.4354C37.2242 20.4359 37.146 20.4478 36.9751 20.3101C36.8023 20.1709 36.5951 19.9229 36.3826 19.548C35.9599 18.802 35.593 17.6902 35.4166 16.3925C35.2402 15.0948 35.297 13.9253 35.5053 13.0936C35.61 12.6756 35.7435 12.3813 35.8728 12.201C36.0008 12.0227 36.0794 12.0133 36.0828 12.0129Z" stroke="#A9630A" stroke-width="1.5"/>
<path d="M3.22775 12.0129C3.22432 12.0124 3.14613 12.0005 2.97517 12.1382C2.80244 12.2773 2.59523 12.5254 2.38275 12.9003C1.96003 13.6462 1.59311 14.758 1.41672 16.0558C1.24032 17.3535 1.29715 18.5229 1.50544 19.3546C1.61013 19.7726 1.74361 20.067 1.87294 20.2472C2.00093 20.4255 2.07947 20.4349 2.0829 20.4354C2.08634 20.4359 2.16453 20.4478 2.33548 20.3101C2.50822 20.1709 2.71542 19.9229 2.9279 19.548C3.35063 18.802 3.71754 17.6902 3.89394 16.3925C4.07033 15.0948 4.0135 13.9253 3.80522 13.0936C3.70052 12.6756 3.56704 12.3813 3.43772 12.201C3.30972 12.0227 3.23119 12.0133 3.22775 12.0129Z" stroke="#A9630A" stroke-width="1.5"/>
<path d="M20 17V22C20 23.1046 19.1046 24 18 24" stroke="#A9630A" stroke-width="2" stroke-linecap="round"/>
<path d="M26 17V20" stroke="#A9630A" stroke-width="2.5" stroke-linecap="round"/>
<path d="M13 17V20" stroke="#A9630A" stroke-width="2.5" stroke-linecap="round"/>
<path d="M14 27C15 28 16.5 29.134 19.5 29.134C22.5 29.134 24 28 25 27" stroke="#A9630A" stroke-width="2" stroke-linecap="round"/>
<path d="M12 10C12 6.79375 12.6667 2.66406 13 1" stroke="url(#paint0_linear_3106_1043)" stroke-width="2" stroke-linecap="round"/>
<path d="M9 12C9 8.79375 9.66667 4.66406 10 3" stroke="url(#paint1_linear_3106_1043)" stroke-width="2" stroke-linecap="round"/>
<defs>
<linearGradient id="paint0_linear_3106_1043" x1="14" y1="-2.5" x2="12.5" y2="10" gradientUnits="userSpaceOnUse">
<stop stop-color="#A9630A" stop-opacity="0"/>
<stop offset="1" stop-color="#A9630A"/>
</linearGradient>
<linearGradient id="paint1_linear_3106_1043" x1="11" y1="-0.5" x2="9.5" y2="12" gradientUnits="userSpaceOnUse">
<stop stop-color="#A9630A" stop-opacity="0"/>
<stop offset="1" stop-color="#A9630A"/>
</linearGradient>
</defs>
</svg>
