<svg width="36" height="33" viewBox="0 0 36 33" fill="none" xmlns="http://www.w3.org/2000/svg">
<path d="M24.9391 2.6237C17.2735 -1.1868 7.97032 1.93835 4.15983 9.60391C0.349337 17.2695 3.47449 26.5727 11.14 30.3831C18.8056 34.1936 28.1088 31.0685 31.9193 23.4029C32.2239 22.7901 32.4842 22.1668 32.7014 21.5367" stroke="#2865D8" stroke-width="2" stroke-linecap="round"/>
<path d="M31.9974 14.5396C32.4853 13.6289 33.1216 13.0892 33.7356 13.1786C34.7866 13.3316 35.3744 15.27 35.0486 17.5081C34.7227 19.7462 33.6066 21.4365 32.5556 21.2834C32.167 21.2269 31.8417 20.9262 31.6025 20.4565" stroke="#2865D8" stroke-width="1.5" stroke-linecap="round"/>
<path d="M2.76375 13.9815C2.49237 13.332 2.14651 12.94 1.79357 12.9631C1.1007 13.0084 0.64297 14.636 0.771204 16.5985C0.899438 18.5611 1.56508 20.1153 2.25795 20.0701C2.54437 20.0513 2.7906 19.7622 2.97187 19.2909" stroke="#2865D8" stroke-width="1.5"/>
<path d="M11.5391 11.0039V16.0039C11.5391 17.1085 12.4345 18.0039 13.5391 18.0039" stroke="#2865D8" stroke-width="2" stroke-linecap="round"/>
<path d="M17.5391 11.0039V14.0039" stroke="#2865D8" stroke-width="2.5" stroke-linecap="round"/>
<path d="M7.53906 11.0039V14.0039" stroke="#2865D8" stroke-width="2.5" stroke-linecap="round"/>
<path d="M7.53906 21.0039C8.53906 22.0039 10.0391 23.1379 13.0391 23.1379C16.0391 23.1379 17.5391 22.0039 18.5391 21.0039" stroke="#2865D8" stroke-width="2" stroke-linecap="round"/>
<path d="M24.5391 7.00391C24.8724 6.75391 25.2794 6.45511 25.8724 6.25391C26.3614 6.08799 26.6829 6.00391 27.2057 6.00391C27.6632 6.00391 27.9247 6.0452 28.2646 6.1278C28.6044 6.2045 28.9181 6.29299 29.2057 6.39329C29.4933 6.49358 29.8322 6.6415 30.2057 6.75391C30.8724 6.9545 31.2057 7.00391 31.8724 7.00391C32.5391 7.00391 32.9312 6.8483 33.2057 6.75391C33.6663 6.59553 34.3168 6.1986 34.5391 6.00391" stroke="url(#paint0_linear_3106_1064)" stroke-width="2" stroke-linecap="round"/>
<path d="M24.5391 10.0039C24.8724 9.75391 25.2794 9.45511 25.8724 9.25391C26.3614 9.08799 26.6829 9.00391 27.2057 9.00391C27.6632 9.00391 27.9247 9.0452 28.2646 9.1278C28.6044 9.2045 28.9181 9.29299 29.2057 9.39329C29.4933 9.49358 29.8322 9.6415 30.2057 9.75391C30.8724 9.9545 31.2057 10.0039 31.8724 10.0039C32.5391 10.0039 32.9312 9.8483 33.2057 9.75391C33.6663 9.59553 34.3168 9.1986 34.5391 9.00391" stroke="url(#paint1_linear_3106_1064)" stroke-width="2" stroke-linecap="round"/>
<defs>
<linearGradient id="paint0_linear_3106_1064" x1="24.5391" y1="6.50391" x2="38.0391" y2="6.50391" gradientUnits="userSpaceOnUse">
<stop stop-color="#2865D8"/>
<stop offset="1" stop-color="#2865D8" stop-opacity="0"/>
</linearGradient>
<linearGradient id="paint1_linear_3106_1064" x1="24.5391" y1="9.50391" x2="38.0391" y2="9.50391" gradientUnits="userSpaceOnUse">
<stop stop-color="#2865D8"/>
<stop offset="1" stop-color="#2865D8" stop-opacity="0"/>
</linearGradient>
</defs>
</svg>
